HIERARCHY
ROOT Hip
{
   OFFSET 0.00000 0.00000 0.00000
   CHANNELS 6 Xposition Yposition Zposition Zrotation Yrotation Xrotation
   JOINT Head
   {
      OFFSET 0.000000 27.319400 0.000000
      CHANNELS 3 Zrotation Yrotation Xrotation
      End Site
      {
         OFFSET 0.000000 16.277100 0.000000
      }
      JOINT LeftShoulder
      {
         OFFSET 9.032789 0.000000 0.000000
         CHANNELS 3 Zrotation Yrotation Xrotation
         JOINT LeftHand
         {
            OFFSET 0.000000 -13.199699 0.000000
            CHANNELS 3 Zrotation Yrotation Xrotation
            End Site
            {
               OFFSET 0.000000 -14.456650 0.000000
            }
         }
      }
      JOINT RightShoulder
      {
         OFFSET -9.626880 0.000000 0.000000
         CHANNELS 3 Zrotation Yrotation Xrotation
         JOINT RghtHand
         {
            OFFSET 0.000000 -15.815950 0.000000
            CHANNELS 3 Zrotation Yrotation Xrotation
            End Site
            {
               OFFSET 0.000000 -10.833920 0.000000
            }
         }
      }
   }
   JOINT LeftHip
   {
      OFFSET 9.557995 0.000000 0.000000
      CHANNELS 3 Zrotation Yrotation Xrotation
      JOINT LeftKnee
      {
         OFFSET 0.000000 -26.942198 0.000000
         CHANNELS 3 Zrotation Yrotation Xrotation
         JOINT LeftFoot
         {
            OFFSET 0.000000 -20.542450 0.000000
            CHANNELS 3 Zrotation Yrotation Xrotation
            End Site
            {
               OFFSET 0.000000 0.000000 13.387151
            }
         }
      }
   }
   JOINT RightHip
   {
      OFFSET -9.557995 0.000000 0.000000
      CHANNELS 3 Zrotation Yrotation Xrotation
      JOINT RightKnee
      {
         OFFSET 0.000000 -24.383449 0.000000
         CHANNELS 3 Zrotation Yrotation Xrotation
         JOINT RightFoot
         {
            OFFSET 0.000000 -20.911600 0.000000
            CHANNELS 3 Zrotation Yrotation Xrotation
            End Site
            {
               OFFSET 0.000000 0.000000 13.446950
            }
         }
      }
   }
}
MOTION
Frames: 19
Frame Time: 0.016670
7.043745 79.475058 2.316976 33.496829 26.187826 256.814102 -5.009921 11.177125 13.004778 -8.716991 -72.130534 79.907292 61.188257 182.140682 136.668397 -37.033685 -10.420592 29.344982 -91.513245 17.189759 53.859166 -86.377741 -5.113661 74.871844 82.122499 -52.416538 1.115120 -7.574801 -48.266024 -37.196466 -110.289510 -23.317320 84.694564 38.087187 -44.423485 62.540361 -54.883681 -45.634055 4.088831
8.947957 79.585789 1.478889 31.399906 29.974801 257.829341 -5.793343 10.903566 13.067680 -7.478849 -66.179397 79.718621 62.488888 183.825785 137.976843 -35.426258 -10.279418 28.625582 -90.273026 16.038266 53.955083 -85.233815 -2.813533 75.544310 77.423425 -53.209960 0.233981 -7.501376 -48.501723 -37.350428 -111.649387 -19.660589 83.783765 36.814368 -43.388828 60.877592 -55.391116 -45.918942 3.630431
10.876987 79.509395 0.625535 29.303906 33.893147 258.652352 -6.810371 10.510479 13.205676 -5.908399 -61.247140 80.080430 62.874617 186.466910 141.008053 -33.746544 -10.282340 26.769642 -89.672857 15.693572 54.315467 -83.148489 -0.172674 76.330041 72.940560 -53.500667 -0.358670 -7.241888 -48.121855 -36.941946 -112.680650 -15.826568 82.719718 36.077063 -41.785089 59.151870 -56.202956 -45.725931 2.471003
12.902394 79.208959 -0.279966 27.304916 37.483737 259.870584 -6.930534 8.700088 11.832637 -5.262321 -54.950685 79.385950 65.636936 187.254554 144.242052 -34.906484 -9.082950 24.639904 -88.471898 14.567511 54.428487 -79.747226 2.258397 76.937136 68.613806 -54.037441 -0.328181 -6.959290 -47.891743 -36.521438 -112.647926 -13.007446 81.182631 34.787834 -39.963690 58.050304 -56.550565 -46.047315 2.211054
14.975940 78.679360 -1.228215 25.256465 41.326913 260.929701 -7.938803 8.270107 10.692449 -4.100632 -52.357730 78.742020 68.747336 187.637113 146.700961 -34.960112 -9.039994 23.573257 -86.463877 12.482224 54.879033 -77.181527 4.563730 78.100741 65.322140 -54.433459 -0.421066 -6.911660 -47.719977 -36.446368 -112.603735 -10.074923 79.431835 33.805041 -38.858070 57.353474 -56.104414 -46.322244 3.217621
17.104610 77.893680 -2.213268 23.619173 45.637367 262.031328 -9.871607 11.570585 10.833226 -3.313793 -57.150044 78.541998 67.989096 190.454839 150.774281 -34.177703 -10.611367 25.282765 -83.986731 9.564677 56.651693 -75.401614 6.864525 79.289965 62.919156 -54.974154 -0.608029 -6.694459 -47.852688 -36.255481 -112.104619 -7.136444 76.727114 33.263578 -38.505734 57.174066 -54.733055 -46.681529 5.793107
19.247507 76.854438 -3.232723 22.201928 49.063247 264.314196 -10.979588 10.570214 7.880966 -4.162845 -53.496316 77.817677 73.259912 189.433125 155.524131 -36.572839 -8.845640 25.529645 -81.552302 6.852052 57.170780 -73.719980 8.324396 80.845828 61.789504 -54.519786 -0.626719 -6.187239 -47.193937 -35.331787 -110.107362 -5.599056 74.544008 33.030989 -38.144609 56.439113 -53.012619 -47.134131 8.997388
21.387396 75.560364 -4.296165 21.322628 52.437756 266.941715 -12.312270 11.218401 5.605964 -4.408745 -52.005559 77.097311 77.101907 188.962975 158.810040 -37.660963 -7.932078 27.482700 -79.166496 4.260258 58.662207 -71.157778 9.955580 82.068773 61.059145 -53.591068 -0.342128 -4.648970 -46.141859 -32.825500 -106.398242 -4.075577 71.932923 33.709429 -37.509234 55.285757 -51.649149 -47.815361 11.843018
23.519368 73.962821 -5.398561 21.962021 56.139224 270.865249 -14.008590 13.028147 3.892452 -4.436651 -51.977835 76.411355 79.811976 188.796592 161.245945 -36.938698 -8.351848 29.500772 -77.686312 2.825805 60.694618 -70.776469 11.617062 83.501890 62.306078 -51.172208 -1.203520 -3.011052 -44.195863 -29.882573 -100.197222 -2.394770 68.149824 34.740354 -37.430840 54.284721 -51.152144 -49.833176 14.033156
25.646028 72.065057 -6.601403 22.025388 59.913135 274.515575 -15.712852 14.732351 3.207485 -5.795193 -53.627056 74.958806 81.029239 188.838120 163.548784 -35.760975 -9.988783 30.718745 -76.448306 1.553127 63.031984 -68.396387 12.751989 84.457967 62.220817 -51.010254 -0.603037 -2.337336 -43.969572 -28.823617 -89.949555 0.022920 63.741757 34.751989 -38.618801 53.829660 -50.661928 -53.251351 16.971557
27.698733 69.905075 -7.864854 24.323598 63.802826 280.843991 -17.705787 15.267629 0.957149 -3.912993 -50.587977 76.354371 83.865174 188.446572 164.556975 -33.862346 -10.623367 30.753712 -76.425568 1.924257 63.749236 -63.782315 13.261793 83.040880 60.201656 -53.808958 1.554075 -0.908186 -46.263105 -27.439144 -80.856619 3.386098 61.179787 37.812470 -41.646518 49.810667 -51.194430 -55.541261 17.614143
29.695363 67.484201 -9.191683 28.991943 67.358909 289.611304 -19.644145 16.157465 -1.638811 -3.411421 -50.621814 76.215643 85.599913 188.517333 166.520886 -33.314470 -11.179193 30.966647 -76.325158 2.180076 64.989858 -62.530095 13.631396 81.948234 59.815812 -55.046219 1.741050 1.062765 -47.591887 -25.066460 -70.283610 8.592393 58.470135 42.746554 -47.137949 43.696753 -50.702816 -56.855796 19.139906
31.577363 64.862241 -10.490566 34.914168 70.461973 300.063106 -21.785384 17.462224 -4.632524 -3.223227 -53.731531 76.281609 85.912011 188.890097 169.020749 -32.763287 -11.837421 32.576850 -75.441482 1.285664 66.662517 -60.957833 13.345917 80.673010 58.772501 -56.799194 1.728885 3.715018 -49.534588 -21.890041 -59.327652 13.937626 57.498090 48.776170 -54.670460 33.870597 -49.960679 -57.433947 20.582763
34.343314 61.791929 -12.500610 46.446963 75.478112 317.973419 -26.041097 18.165902 -8.105274 -1.284118 -58.129390 78.783650 82.468503 185.186099 172.428030 -36.439770 -12.244886 36.487455 -71.961876 0.047699 69.021322 -56.403859 11.840098 78.631720 56.494182 -59.286240 2.595330 5.414667 -51.599596 -20.351534 -50.399105 17.295238 59.857428 57.907860 -57.012713 18.411424 -53.527844 -57.124659 20.531760
35.932557 58.696212 -13.955366 52.235467 77.919850 329.703640 -27.865736 19.026954 -12.112141 -0.880619 -62.157897 79.812980 83.417626 185.191318 175.222438 -38.854638 -10.145163 41.279939 -68.040610 -7.427569 72.322284 -55.093624 8.989712 77.973160 55.308478 -61.517649 1.850540 5.385656 -53.637499 -20.569991 -40.909582 17.804114 59.922677 64.951404 -60.116784 5.826582 -52.687406 -56.518511 21.495763
37.380440 55.369572 -15.395710 61.715281 81.073799 345.073642 -30.482530 18.624930 -15.223206 -0.052069 -66.967963 81.219439 83.923443 185.147003 177.624219 -35.180733 -7.561370 45.390063 -65.116599 -13.382281 74.479190 -55.675549 5.357159 78.001723 55.836243 -62.681295 0.255722 5.076065 -55.066317 -21.079917 -33.388471 16.621564 59.908142 71.838550 -58.811931 -6.153226 -51.822602 -57.205075 23.309142
38.730115 51.823644 -16.823865 235.296165 94.924610 164.654236 -23.884997 11.438278 -18.387672 -4.336265 -57.510104 78.956604 90.849296 185.062924 184.250049 -34.847222 1.217270 40.994819 -67.026361 -8.824470 72.907256 -56.721583 1.431814 80.409918 59.320883 -60.343239 -0.661074 4.095477 -53.372369 -22.079934 -26.141441 11.605794 58.726124 72.630545 -56.788331 -12.771481 -50.289648 -57.342088 25.734566
40.009679 48.078408 -18.257919 44.049539 91.613389 339.012232 -22.049046 4.802743 -20.114361 -6.111301 -55.404978 79.159570 93.782022 185.138015 189.046454 -28.267768 6.511949 36.360324 -73.401086 4.967460 69.322438 -57.168431 -3.166310 83.463204 64.200425 -57.506402 -0.861050 3.354987 -51.436498 -22.917332 -22.395886 5.282334 58.370216 75.220914 -53.466840 -18.645276 -48.355154 -57.634618 28.736634
41.222128 44.072351 -19.808602 56.264144 99.846437 357.635699 -17.173174 -2.434322 -22.509892 -10.470760 -51.745445 77.790978 96.509992 185.265370 195.576689 -30.023555 13.620715 37.366992 -76.191669 8.964791 62.965731 -60.718572 -9.475155 89.693662 70.935353 -56.357192 0.834550 -2.749147 -50.134675 -30.484845 -20.750244 -5.607302 58.028003 74.862309 -50.580935 -21.049765 -49.870821 -57.132627 27.600047
